<svg preserveAspectRatio="none" overflow="visible" style="display: block;" width="2017.24" height="244" viewBox="0 0 2017.24 244" fill="none" xmlns="http://www.w3.org/2000/svg">
<g id="Frame 1">
<line id="Line 1" x1="187.236" y1="43.9629" x2="0.321394" y2="200.803" stroke="#2C2C2C"/>
<line id="Line 2" x1="234.151" y1="43.9629" x2="47.2362" y2="200.803" stroke="#2C2C2C"/>
<line id="Line 3" x1="281.066" y1="43.9629" x2="94.1511" y2="200.803" stroke="#2C2C2C"/>
<line id="Line 4" x1="327.981" y1="43.9629" x2="141.066" y2="200.803" stroke="#2C2C2C"/>
<line id="Line 5" x1="374.896" y1="43.9629" x2="187.981" y2="200.803" stroke="#2C2C2C"/>
<line id="Line 6" x1="421.81" y1="43.9629" x2="234.896" y2="200.803" stroke="#2C2C2C"/>
<line id="Line 7" x1="468.725" y1="43.9629" x2="281.81" y2="200.803" stroke="#2C2C2C"/>
<line id="Line 8" x1="515.64" y1="43.9629" x2="328.725" y2="200.803" stroke="#2C2C2C"/>
<line id="Line 9" x1="562.555" y1="43.9629" x2="375.64" y2="200.803" stroke="#2C2C2C"/>
<line id="Line 10" x1="609.47" y1="43.9629" x2="422.555" y2="200.803" stroke="#2C2C2C"/>
<line id="Line 11" x1="656.385" y1="43.9629" x2="469.47" y2="200.803" stroke="#2C2C2C"/>
<line id="Line 12" x1="703.3" y1="43.9629" x2="516.385" y2="200.803" stroke="#2C2C2C"/>
<line id="Line 13" x1="750.214" y1="43.9629" x2="563.3" y2="200.803" stroke="#2C2C2C"/>
<line id="Line 14" x1="797.129" y1="43.9629" x2="610.214" y2="200.803" stroke="#2C2C2C"/>
<line id="Line 15" x1="844.044" y1="43.9629" x2="657.129" y2="200.803" stroke="#2C2C2C"/>
<line id="Line 16" x1="890.959" y1="43.9629" x2="704.044" y2="200.803" stroke="#2C2C2C"/>
<line id="Line 17" x1="937.874" y1="43.9629" x2="750.959" y2="200.803" stroke="#2C2C2C"/>
<line id="Line 18" x1="984.789" y1="43.9629" x2="797.874" y2="200.803" stroke="#2C2C2C"/>
<line id="Line 19" x1="1031.7" y1="43.9629" x2="844.789" y2="200.803" stroke="#2C2C2C"/>
<line id="Line 20" x1="1078.62" y1="43.9629" x2="891.704" y2="200.803" stroke="#2C2C2C"/>
<line id="Line 21" x1="1125.53" y1="43.9629" x2="938.618" y2="200.803" stroke="#2C2C2C"/>
<line id="Line 22" x1="1172.45" y1="43.9629" x2="985.533" y2="200.803" stroke="#2C2C2C"/>
<line id="Line 23" x1="1219.36" y1="43.9629" x2="1032.45" y2="200.803" stroke="#2C2C2C"/>
<line id="Line 24" x1="1266.28" y1="43.9629" x2="1079.36" y2="200.803" stroke="#2C2C2C"/>
<line id="Line 25" x1="1313.19" y1="43.9629" x2="1126.28" y2="200.803" stroke="#2C2C2C"/>
<line id="Line 26" x1="1360.11" y1="43.9629" x2="1173.19" y2="200.803" stroke="#2C2C2C"/>
<line id="Line 27" x1="1407.02" y1="43.9629" x2="1220.11" y2="200.803" stroke="#2C2C2C"/>
<line id="Line 28" x1="1453.94" y1="43.9629" x2="1267.02" y2="200.803" stroke="#2C2C2C"/>
<line id="Line 29" x1="1500.85" y1="43.9629" x2="1313.94" y2="200.803" stroke="#2C2C2C"/>
<line id="Line 30" x1="1547.77" y1="43.9629" x2="1360.85" y2="200.803" stroke="#2C2C2C"/>
<line id="Line 31" x1="1594.68" y1="43.9629" x2="1407.77" y2="200.803" stroke="#2C2C2C"/>
<line id="Line 32" x1="1641.6" y1="43.9629" x2="1454.68" y2="200.803" stroke="#2C2C2C"/>
<line id="Line 33" x1="1688.51" y1="43.9629" x2="1501.6" y2="200.803" stroke="#2C2C2C"/>
<line id="Line 34" x1="1735.43" y1="43.9629" x2="1548.51" y2="200.803" stroke="#2C2C2C"/>
<line id="Line 35" x1="1782.34" y1="43.9629" x2="1595.43" y2="200.803" stroke="#2C2C2C"/>
<line id="Line 36" x1="1829.26" y1="43.9629" x2="1642.34" y2="200.803" stroke="#2C2C2C"/>
<line id="Line 37" x1="1876.17" y1="43.9629" x2="1689.26" y2="200.803" stroke="#2C2C2C"/>
<line id="Line 38" x1="1923.08" y1="43.9629" x2="1736.17" y2="200.803" stroke="#2C2C2C"/>
<line id="Line 39" x1="1970" y1="43.9629" x2="1783.08" y2="200.803" stroke="#2C2C2C"/>
<line id="Line 40" x1="2016.91" y1="43.9629" x2="1830" y2="200.803" stroke="#2C2C2C"/>
</g>
</svg>
